# xmcd
#
# Track frame offsets:
#	150
#	19305
#	37097
#	57525
#	77617
#	95150
#	111527
#	132435
#	154350
#	171907
#	189577
#	203805
#	245410
#
# Disc length: 3612 seconds
#
# Revision: 0
# Processed by: cddbd v1.4PL0 Copyright (c) Steve Scherf et al.
# Submitted via: dBpowerAMP V4.0
#
DISCID=c20e1a0d
DTITLE=Dido - No Angel
DYEAR=1900
DGENRE=Soul
TTITLE0=Here With Me 
TTITLE1=Hunter
TTITLE2=Don't Think Of Me 
TTITLE3=My Lover's Gone 
TTITLE4=All You Want 
TTITLE5=Thank You
TTITLE6=Honestly OK 
TTITLE7=Slide
TTITLE8=Isobel 
TTITLE9=I'm No Angel 
TTITLE10=My Life 
TTITLE11=Take My Hand
TTITLE12=DATA
EXTD=
EXTT0=
EXTT1=
EXTT2=
EXTT3=
EXTT4=
EXTT5=
EXTT6=
EXTT7=
EXTT8=
EXTT9=
EXTT10=
EXTT11=
EXTT12=
PLAYORDER=
